{
	"patcher" : 	{
		"fileversion" : 1,
		"appversion" : 		{
			"major" : 7,
			"minor" : 0,
			"revision" : 4,
			"architecture" : "x86",
			"modernui" : 1
		}
,
		"rect" : [ 630.0, 257.0, 1073.0, 727.0 ],
		"editing_bgcolor" : [ 0.9, 0.9, 0.9, 1.0 ],
		"bglocked" : 0,
		"openinpresentation" : 0,
		"default_fontsize" : 12.0,
		"default_fontface" : 0,
		"default_fontname" : "Arial",
		"gridonopen" : 1,
		"gridsize" : [ 15.0, 15.0 ],
		"gridsnaponopen" : 1,
		"objectsnaponopen" : 1,
		"statusbarvisible" : 2,
		"toolbarvisible" : 1,
		"lefttoolbarpinned" : 0,
		"toptoolbarpinned" : 0,
		"righttoolbarpinned" : 0,
		"bottomtoolbarpinned" : 0,
		"toolbars_unpinned_last_save" : 0,
		"tallnewobj" : 0,
		"boxanimatetime" : 200,
		"enablehscroll" : 1,
		"enablevscroll" : 1,
		"devicewidth" : 0.0,
		"description" : "",
		"digest" : "",
		"tags" : "",
		"style" : "",
		"subpatcher_template" : "",
		"boxes" : [ 			{
				"box" : 				{
					"code" : "Param CellSize(1.25);\r\n//Param Scale(.01);\r\n\r\nVelocity = in1;\r\nObstacles = in2;\r\n//HalfInverseCellSize = 1 / (CellSize * .5);\r\nHalfInverseCellSize = .5/(CellSize)\t;//(.5/CellSize)*Scale; //1.25/dim/2;//CellSize/2/dim;\r\n// Find neighboring velocities:\r\nvN = nearest(Velocity, (cell+vec(0,1))/dim).xy;\r\nvS = nearest(Velocity, (cell+vec(0,-1))/dim).xy;\r\nvE = nearest(Velocity, (cell+vec(1,0))/dim).xy;\r\nvW = nearest(Velocity, (cell+vec(-1,0))/dim).xy;\r\n\r\n// Find neighboring obstacles:\r\noN = nearest(Obstacles, (cell+vec(0,1))/dim).xyz;\r\noS = nearest(Obstacles, (cell+vec(0,-1))/dim).xyz;\r\noE = nearest(Obstacles, (cell+vec(1,0))/dim).xyz;\r\noW = nearest(Obstacles, (cell+vec(-1,0))/dim).xyz;\r\n\r\n // Use obstacle velocities for solid cells:\r\n\r\nif(oN.x > 0) vN = oN.yz;\r\nif(oS.x > 0) vS = oS.yz;\r\nif(oE.x > 0) vE = oE.yz;\r\nif(oW.x > 0) vW = oW.yz;\r\nfc =-1 * HalfInverseCellSize * (vE.x - vW.x + vN.y - vS.y);\r\nout1 = vec(in1.r, fc, in1.b, in.a);",
					"fontface" : 0,
					"fontname" : "Arial",
					"fontsize" : 12.0,
					"id" : "obj-5",
					"maxclass" : "codebox",
					"numinlets" : 2,
					"numoutlets" : 1,
					"outlettype" : [ "" ],
					"patching_rect" : [ 16.5, 68.0, 679.0, 464.0 ],
					"style" : ""
				}

			}
, 			{
				"box" : 				{
					"id" : "obj-1",
					"maxclass" : "newobj",
					"numinlets" : 0,
					"numoutlets" : 1,
					"outlettype" : [ "" ],
					"patching_rect" : [ 16.5, 37.0, 73.0, 22.0 ],
					"style" : "",
					"text" : "in 1 velocity"
				}

			}
, 			{
				"box" : 				{
					"id" : "obj-2",
					"maxclass" : "newobj",
					"numinlets" : 0,
					"numoutlets" : 1,
					"outlettype" : [ "" ],
					"patching_rect" : [ 676.5, 37.0, 84.0, 22.0 ],
					"style" : "",
					"text" : "in 2 obstacles"
				}

			}
, 			{
				"box" : 				{
					"id" : "obj-4",
					"maxclass" : "newobj",
					"numinlets" : 1,
					"numoutlets" : 0,
					"patching_rect" : [ 16.5, 550.0, 37.0, 22.0 ],
					"style" : "",
					"text" : "out 1"
				}

			}
 ],
		"lines" : [ 			{
				"patchline" : 				{
					"destination" : [ "obj-5", 0 ],
					"disabled" : 0,
					"hidden" : 0,
					"source" : [ "obj-1", 0 ]
				}

			}
, 			{
				"patchline" : 				{
					"destination" : [ "obj-5", 1 ],
					"disabled" : 0,
					"hidden" : 0,
					"source" : [ "obj-2", 0 ]
				}

			}
, 			{
				"patchline" : 				{
					"destination" : [ "obj-4", 0 ],
					"disabled" : 0,
					"hidden" : 0,
					"source" : [ "obj-5", 0 ]
				}

			}
 ]
	}

}
