{
	"patcher" : 	{
		"fileversion" : 1,
		"appversion" : 		{
			"major" : 7,
			"minor" : 0,
			"revision" : 4,
			"architecture" : "x86",
			"modernui" : 1
		}
,
		"rect" : [ 191.0, 129.0, 862.0, 1015.0 ],
		"editing_bgcolor" : [ 0.9, 0.9, 0.9, 1.0 ],
		"bglocked" : 0,
		"openinpresentation" : 0,
		"default_fontsize" : 12.0,
		"default_fontface" : 0,
		"default_fontname" : "Arial",
		"gridonopen" : 1,
		"gridsize" : [ 15.0, 15.0 ],
		"gridsnaponopen" : 1,
		"objectsnaponopen" : 1,
		"statusbarvisible" : 2,
		"toolbarvisible" : 1,
		"lefttoolbarpinned" : 0,
		"toptoolbarpinned" : 0,
		"righttoolbarpinned" : 0,
		"bottomtoolbarpinned" : 0,
		"toolbars_unpinned_last_save" : 0,
		"tallnewobj" : 0,
		"boxanimatetime" : 200,
		"enablehscroll" : 1,
		"enablevscroll" : 1,
		"devicewidth" : 0.0,
		"description" : "",
		"digest" : "",
		"tags" : "",
		"style" : "",
		"subpatcher_template" : "",
		"boxes" : [ 			{
				"box" : 				{
					"code" : "Param Lambda(0);\r\nParam Scale(1.,1.);\r\nParam Offset(1., 1.);\r\nParam Threshold(.0);\r\ntex0 = in1;\r\ntex1 = in2;\r\nx1 = vec(Offset.x/dim.x, 0);\r\ny1 = vec(0, Offset.y/dim.y);\r\ntexcoord = norm;\ncurdif = tex1-tex0;\r\n\r\ngradx = nearest(tex1, texcoord+x1, boundmode=\"clamp\") - nearest(tex1, texcoord-x1,boundmode=\"clamp\");\ngradx += nearest(tex0, texcoord+x1,boundmode=\"clamp\") - nearest(tex0, texcoord-x1,boundmode=\"clamp\");\n    \ngrady = nearest(tex1, texcoord-y1,boundmode=\"clamp\")-nearest(tex1, texcoord+y1,boundmode=\"clamp\");\ngrady += nearest(tex0, texcoord-y1,boundmode=\"clamp\") - nearest(tex0, texcoord+y1,boundmode=\"clamp\");\n    \ngradmag = sqrt((gradx*gradx)+(grady*grady)+(vec(Lambda, Lambda, Lambda, Lambda)));\n\r\nif(gradmag < Threshold) {\r\n\tout1 = vec(0,0,0,0);\r\n} else {\r\n\r\nvx = curdif*(gradx/gradmag);\nvxd = vx.r;\nxout = vec(max(vxd,0.), abs(min(vxd,0.)))*Scale.x;\r\n\r\nvy = curdif*(grady/gradmag);\nvyd = vy.r;\nyout = vec(max(vyd,0.), abs(min(vyd,0.)))*Scale.y;\r\n\r\nout1 = concat(xout.xy, yout.xy);\r\n}",
					"fontface" : 0,
					"fontname" : "Arial",
					"fontsize" : 12.0,
					"id" : "obj-3",
					"maxclass" : "codebox",
					"numinlets" : 2,
					"numoutlets" : 1,
					"outlettype" : [ "" ],
					"patching_rect" : [ 68.0, 68.0, 691.0, 546.0 ],
					"style" : ""
				}

			}
, 			{
				"box" : 				{
					"id" : "obj-1",
					"maxclass" : "newobj",
					"numinlets" : 0,
					"numoutlets" : 1,
					"outlettype" : [ "" ],
					"patching_rect" : [ 68.0, -1.0, 30.0, 22.0 ],
					"style" : "",
					"text" : "in 1"
				}

			}
, 			{
				"box" : 				{
					"id" : "obj-2",
					"maxclass" : "newobj",
					"numinlets" : 0,
					"numoutlets" : 1,
					"outlettype" : [ "" ],
					"patching_rect" : [ 210.0, -1.0, 30.0, 22.0 ],
					"style" : "",
					"text" : "in 2"
				}

			}
, 			{
				"box" : 				{
					"id" : "obj-4",
					"maxclass" : "newobj",
					"numinlets" : 1,
					"numoutlets" : 0,
					"patching_rect" : [ 68.0, 634.0, 37.0, 22.0 ],
					"style" : "",
					"text" : "out 1"
				}

			}
 ],
		"lines" : [ 			{
				"patchline" : 				{
					"destination" : [ "obj-3", 0 ],
					"disabled" : 0,
					"hidden" : 0,
					"source" : [ "obj-1", 0 ]
				}

			}
, 			{
				"patchline" : 				{
					"destination" : [ "obj-3", 1 ],
					"disabled" : 0,
					"hidden" : 0,
					"source" : [ "obj-2", 0 ]
				}

			}
, 			{
				"patchline" : 				{
					"destination" : [ "obj-4", 0 ],
					"disabled" : 0,
					"hidden" : 0,
					"source" : [ "obj-3", 0 ]
				}

			}
 ]
	}

}
